@startuml
'https://plantuml.com/class-diagram

abstract class Person {
    - String name
    - int age
    - int phoneNumber
}

Person <|-- Trainer
class Trainer {
    - TrainingCenter trainingCenter
    - String skill
    + TrainingPlan createTrainingPlan()
}

Person <|-- Athlete
Athlete --> Trainer
Athlete --> TrainingPlan
class Athlete {
    - int weight
    - Trainer personalTrainer
    - TrainingPlan trainingPlan
}

class TrainingCenter {

}

class TrainingPlan {
}

@enduml